<svg width="24" height="24" viewBox="0 0 24 24" fill="none" xmlns="http://www.w3.org/2000/svg">
                        <g clip-path="url(#clip0_23_60)">
                            <path fill-rule="evenodd" clip-rule="evenodd"
                                d="M6.90392 8.22485C6.1099 8.22485 5.48096 8.86074 5.48096 9.62703V17.1156C5.48096 17.8819 6.1099 18.5178 6.90392 18.5178H17.0961C17.8901 18.5178 18.519 17.8819 18.519 17.1156V9.62703C18.519 8.86074 17.8901 8.22485 17.0961 8.22485H6.90392ZM3.48096 9.62703C3.48096 7.73995 5.02161 6.22485 6.90392 6.22485H17.0961C18.9784 6.22485 20.519 7.73995 20.519 9.62703V17.1156C20.519 19.0027 18.9784 20.5178 17.0961 20.5178H6.90392C5.02161 20.5178 3.48096 19.0027 3.48096 17.1156V9.62703Z"
                                fill="#3A2387" />
                            <path fill-rule="evenodd" clip-rule="evenodd" d="M9.35574 3.5V9.77288H7.35574V3.5H9.35574Z"
                                fill="#3A2387" />
                            <path fill-rule="evenodd" clip-rule="evenodd" d="M16.6344 3.5V9.77288H14.6344V3.5H16.6344Z"
                                fill="#3A2387" />
                        </g>
                        <defs>
                            <clipPath id="clip0_23_60">
                                <rect width="17" height="17" fill="white" transform="translate(3.5 3.5)" />
                            </clipPath>
                        </defs>
                    </svg>