<svg width="16" height="16" viewBox="0 0 16 16" fill="none" xmlns="http://www.w3.org/2000/svg">
                        <path
                            d="M9.33335 4.00002C9.33335 4.7364 8.7364 5.33335 8.00002 5.33335C7.26364 5.33335 6.66669 4.7364 6.66669 4.00002C6.66669 3.26364 7.26364 2.66669 8.00002 2.66669C8.7364 2.66669 9.33335 3.26364 9.33335 4.00002Z"
                            fill="#3A2387" />
                        <path
                            d="M9.33335 8.00002C9.33335 8.7364 8.7364 9.33335 8.00002 9.33335C7.26364 9.33335 6.66669 8.7364 6.66669 8.00002C6.66669 7.26364 7.26364 6.66669 8.00002 6.66669C8.7364 6.66669 9.33335 7.26364 9.33335 8.00002Z"
                            fill="#3A2387" />
                        <path
                            d="M9.33335 12C9.33335 12.7364 8.7364 13.3334 8.00002 13.3334C7.26364 13.3334 6.66669 12.7364 6.66669 12C6.66669 11.2636 7.26364 10.6667 8.00002 10.6667C8.7364 10.6667 9.33335 11.2636 9.33335 12Z"
                            fill="#3A2387" />
                    </svg>