<svg width="44" height="13" viewBox="0 0 44 13" fill="none" xmlns="http://www.w3.org/2000/svg">
    <path d="M0.413352 12V0.363636H2.52131V10.233H7.64631V12H0.413352ZM19.4205 6.18182C19.4205 7.43561 19.1856 8.50947 18.7159 9.40341C18.25 10.2936 17.6136 10.9754 16.8068 11.4489C16.0038 11.9223 15.0928 12.1591 14.0739 12.1591C13.0549 12.1591 12.142 11.9223 11.3352 11.4489C10.5322 10.9716 9.89583 10.2879 9.42614 9.39773C8.96023 8.50379 8.72727 7.43182 8.72727 6.18182C8.72727 4.92803 8.96023 3.85606 9.42614 2.96591C9.89583 2.07197 10.5322 1.38826 11.3352 0.914772C12.142 0.441287 13.0549 0.204545 14.0739 0.204545C15.0928 0.204545 16.0038 0.441287 16.8068 0.914772C17.6136 1.38826 18.25 2.07197 18.7159 2.96591C19.1856 3.85606 19.4205 4.92803 19.4205 6.18182ZM17.3011 6.18182C17.3011 5.29924 17.1629 4.55492 16.8864 3.94886C16.6136 3.33902 16.2348 2.87879 15.75 2.56818C15.2652 2.25379 14.7064 2.09659 14.0739 2.09659C13.4413 2.09659 12.8826 2.25379 12.3977 2.56818C11.9129 2.87879 11.5322 3.33902 11.2557 3.94886C10.983 4.55492 10.8466 5.29924 10.8466 6.18182C10.8466 7.06439 10.983 7.81061 11.2557 8.42045C11.5322 9.02652 11.9129 9.48674 12.3977 9.80114C12.8826 10.1117 13.4413 10.267 14.0739 10.267C14.7064 10.267 15.2652 10.1117 15.75 9.80114C16.2348 9.48674 16.6136 9.02652 16.8864 8.42045C17.1629 7.81061 17.3011 7.06439 17.3011 6.18182ZM29.2088 4.07955C29.1141 3.77273 28.9834 3.49811 28.8168 3.25568C28.6539 3.00947 28.4569 2.79924 28.2259 2.625C27.9986 2.45076 27.7372 2.32008 27.4418 2.23295C27.1463 2.14205 26.8243 2.09659 26.4759 2.09659C25.8509 2.09659 25.294 2.25379 24.8054 2.56818C24.3168 2.88258 23.9323 3.3447 23.652 3.95455C23.3755 4.56061 23.2372 5.29924 23.2372 6.17045C23.2372 7.04924 23.3755 7.79356 23.652 8.40341C23.9285 9.01326 24.313 9.47727 24.8054 9.79545C25.2978 10.1098 25.8698 10.267 26.5213 10.267C27.1122 10.267 27.6236 10.1534 28.0554 9.92614C28.491 9.69886 28.8262 9.37689 29.0611 8.96023C29.2959 8.53977 29.4134 8.04735 29.4134 7.48295L29.8906 7.55682H26.7315V5.90909H31.4531V7.30682C31.4531 8.30303 31.241 9.16477 30.8168 9.89205C30.3925 10.6193 29.8092 11.1799 29.0668 11.5739C28.3243 11.964 27.4721 12.1591 26.5099 12.1591C25.438 12.1591 24.4967 11.9186 23.6861 11.4375C22.8793 10.9527 22.2486 10.2652 21.794 9.375C21.3433 8.48106 21.1179 7.42045 21.1179 6.19318C21.1179 5.25379 21.2505 4.41477 21.5156 3.67614C21.7846 2.9375 22.1596 2.31061 22.6406 1.79545C23.1217 1.27651 23.6861 0.882575 24.3338 0.613636C24.9815 0.340909 25.6861 0.204545 26.4474 0.204545C27.0914 0.204545 27.6918 0.299242 28.2486 0.488636C28.8054 0.674242 29.2997 0.939394 29.7315 1.28409C30.1671 1.62879 30.5251 2.03788 30.8054 2.51136C31.0857 2.98485 31.2694 3.50758 31.3565 4.07955H29.2088ZM43.8892 6.18182C43.8892 7.43561 43.6544 8.50947 43.1847 9.40341C42.7188 10.2936 42.0824 10.9754 41.2756 11.4489C40.4725 11.9223 39.5616 12.1591 38.5426 12.1591C37.5237 12.1591 36.6108 11.9223 35.804 11.4489C35.0009 10.9716 34.3646 10.2879 33.8949 9.39773C33.429 8.50379 33.196 7.43182 33.196 6.18182C33.196 4.92803 33.429 3.85606 33.8949 2.96591C34.3646 2.07197 35.0009 1.38826 35.804 0.914772C36.6108 0.441287 37.5237 0.204545 38.5426 0.204545C39.5616 0.204545 40.4725 0.441287 41.2756 0.914772C42.0824 1.38826 42.7188 2.07197 43.1847 2.96591C43.6544 3.85606 43.8892 4.92803 43.8892 6.18182ZM41.7699 6.18182C41.7699 5.29924 41.6316 4.55492 41.3551 3.94886C41.0824 3.33902 40.7036 2.87879 40.2188 2.56818C39.7339 2.25379 39.1752 2.09659 38.5426 2.09659C37.91 2.09659 37.3513 2.25379 36.8665 2.56818C36.3816 2.87879 36.0009 3.33902 35.7244 3.94886C35.4517 4.55492 35.3153 5.29924 35.3153 6.18182C35.3153 7.06439 35.4517 7.81061 35.7244 8.42045C36.0009 9.02652 36.3816 9.48674 36.8665 9.80114C37.3513 10.1117 37.91 10.267 38.5426 10.267C39.1752 10.267 39.7339 10.1117 40.2188 9.80114C40.7036 9.48674 41.0824 9.02652 41.3551 8.42045C41.6316 7.81061 41.7699 7.06439 41.7699 6.18182Z" fill="white" />
</svg>