<svg width="24" height="24" viewBox="0 0 24 24" fill="none" xmlns="http://www.w3.org/2000/svg">
<g clip-path="url(#clip0_23_91)">
<path fill-rule="evenodd" clip-rule="evenodd" d="M16.6369 3.69111C17.1336 3.77388 17.6056 4.03138 17.9771 4.4029L17.27 5.11L17.9771 4.4029L19.9471 6.3729C20.3186 6.74441 20.5761 7.21644 20.6589 7.7131C20.741 8.20546 20.6567 8.81755 20.1971 9.27711L17.1671 12.3071L15.7529 10.8929L18.6667 7.97915C18.6452 7.92791 18.6045 7.85871 18.5329 7.78711L16.5629 5.81711C16.4913 5.74551 16.4221 5.70482 16.3709 5.68336L13.4571 8.59711L12.0429 7.1829L15.0729 4.1529C15.5325 3.69334 16.1446 3.60905 16.6369 3.69111Z" fill="#3A2387"/>
<path fill-rule="evenodd" clip-rule="evenodd" d="M12.6496 6.56535L16.7742 10.69H18.7863L8.93712 20.5271C8.93697 20.5273 8.93726 20.527 8.93712 20.5271C8.4111 21.0529 7.6966 21.2957 6.99001 21.3098L6.97767 21.31L4.36001 21.33C3.93704 21.33 3.60933 21.121 3.41415 20.9259C3.21898 20.7307 3.01001 20.403 3.01001 19.98V19.9685L3.04002 17.3637C3.04151 16.6165 3.3094 15.9166 3.82247 15.4033L12.6496 6.56535ZM14.9504 11.6946L12.6504 9.39465L5.23755 16.8167C5.13235 16.9219 5.04001 17.0998 5.04001 17.37V17.3815L5.01761 19.3249L6.95535 19.3101C7.24548 19.3032 7.42953 19.2063 7.5229 19.1129L14.9504 11.6946Z" fill="#3A2387"/>
</g>
<defs>
<clipPath id="clip0_23_91">
<rect width="18.69" height="18.69" fill="white" transform="translate(3 2.65)"/>
</clipPath>
</defs>
</svg>