<svg width="148" height="170" viewBox="0 0 148 170" fill="none" xmlns="http://www.w3.org/2000/svg">
<rect width="148" height="170" fill="#FEEBE5"/>
<g clip-path="url(#clip0_0_333)">
<path d="M0 84C0 81.7909 1.79086 80 4 80H143C145.209 80 147 81.7909 147 84V170H0V84Z" fill="white"/>
<path d="M74.0056 123.169C73.2201 123.166 72.5489 122.959 71.9921 122.548C71.4353 122.137 71.0094 121.538 70.7144 120.753C70.4194 119.967 70.2719 119.021 70.2719 117.914C70.2719 116.81 70.4194 115.867 70.7144 115.085C71.0127 114.303 71.4403 113.706 71.9971 113.295C72.5572 112.884 73.2267 112.679 74.0056 112.679C74.7845 112.679 75.4523 112.886 76.0091 113.3C76.566 113.711 76.9919 114.308 77.2868 115.09C77.5851 115.869 77.7343 116.81 77.7343 117.914C77.7343 119.024 77.5868 119.972 77.2918 120.758C76.9968 121.54 76.5709 122.138 76.0141 122.553C75.4573 122.964 74.7878 123.169 74.0056 123.169ZM74.0056 121.842C74.695 121.842 75.2336 121.505 75.6214 120.832C76.0125 120.16 76.208 119.187 76.208 117.914C76.208 117.069 76.1185 116.355 75.9395 115.771C75.7639 115.185 75.5103 114.741 75.1789 114.439C74.8508 114.134 74.4597 113.982 74.0056 113.982C73.3195 113.982 72.7809 114.32 72.3898 114.996C71.9987 115.672 71.8015 116.645 71.7982 117.914C71.7982 118.763 71.886 119.48 72.0617 120.067C72.2407 120.65 72.4942 121.093 72.8224 121.394C73.1505 121.692 73.5449 121.842 74.0056 121.842ZM57.631 140.159C56.8952 140.159 56.2605 139.997 55.7269 139.672C55.1966 139.344 54.7873 138.886 54.4989 138.3C54.2139 137.71 54.0714 137.024 54.0714 136.241C54.0714 135.459 54.2139 134.77 54.4989 134.173C54.7873 133.573 55.1883 133.106 55.7021 132.771C56.2191 132.433 56.8223 132.264 57.5117 132.264C57.9094 132.264 58.3022 132.33 58.69 132.463C59.0778 132.596 59.4308 132.811 59.7489 133.109C60.0671 133.404 60.3207 133.795 60.5096 134.283C60.6985 134.77 60.793 135.37 60.793 136.082V136.58H54.9066V135.565H59.5998C59.5998 135.134 59.5136 134.75 59.3413 134.412C59.1722 134.074 58.9303 133.807 58.6154 133.612C58.3039 133.416 57.936 133.318 57.5117 133.318C57.0444 133.318 56.64 133.434 56.2987 133.666C55.9606 133.895 55.7004 134.193 55.5181 134.561C55.3358 134.929 55.2447 135.323 55.2447 135.744V136.42C55.2447 136.997 55.3441 137.486 55.543 137.887C55.7451 138.285 56.0252 138.588 56.3832 138.797C56.7411 139.002 57.1571 139.105 57.631 139.105C57.9393 139.105 58.2177 139.062 58.4663 138.976C58.7182 138.886 58.9353 138.754 59.1175 138.578C59.2998 138.399 59.4407 138.177 59.5401 137.912L60.6737 138.23C60.5543 138.615 60.3538 138.953 60.0721 139.244C59.7904 139.533 59.4424 139.758 59.0281 139.92C58.6138 140.08 58.1481 140.159 57.631 140.159ZM63.6715 137.216L63.6516 135.764H63.8903L67.2312 132.364H68.6829L65.1232 135.963H65.0238L63.6715 137.216ZM62.5778 140V129.818H63.7511V140H62.5778ZM67.43 140L64.4471 136.222L65.2823 135.406L68.9215 140H67.43ZM75.6021 134.074L74.5481 134.372C74.4818 134.196 74.3841 134.026 74.2548 133.86C74.1288 133.691 73.9565 133.552 73.7377 133.442C73.519 133.333 73.2389 133.278 72.8975 133.278C72.4302 133.278 72.0408 133.386 71.7292 133.602C71.421 133.814 71.2669 134.084 71.2669 134.412C71.2669 134.704 71.3729 134.934 71.585 135.103C71.7972 135.272 72.1286 135.413 72.5794 135.526L73.7129 135.804C74.3957 135.97 74.9044 136.223 75.2392 136.565C75.5739 136.903 75.7413 137.339 75.7413 137.872C75.7413 138.31 75.6154 138.701 75.3635 139.045C75.1149 139.39 74.7669 139.662 74.3194 139.861C73.872 140.06 73.3516 140.159 72.7583 140.159C71.9795 140.159 71.3348 139.99 70.8244 139.652C70.314 139.314 69.9908 138.82 69.8549 138.17L70.9686 137.892C71.0746 138.303 71.2752 138.611 71.5701 138.817C71.8684 139.022 72.2579 139.125 72.7385 139.125C73.2853 139.125 73.7195 139.009 74.041 138.777C74.3658 138.542 74.5282 138.26 74.5282 137.932C74.5282 137.667 74.4354 137.445 74.2498 137.266C74.0642 137.083 73.7792 136.947 73.3947 136.858L72.122 136.56C71.4226 136.394 70.9089 136.137 70.5808 135.789C70.256 135.438 70.0936 134.999 70.0936 134.472C70.0936 134.041 70.2145 133.66 70.4565 133.328C70.7018 132.997 71.0349 132.737 71.4558 132.548C71.88 132.359 72.3606 132.264 72.8975 132.264C73.6532 132.264 74.2465 132.43 74.6774 132.761C75.1116 133.093 75.4198 133.53 75.6021 134.074ZM80.8285 132.364V133.358H76.8711V132.364H80.8285ZM78.0245 130.534H79.1978V137.812C79.1978 138.144 79.2459 138.393 79.342 138.558C79.4414 138.721 79.5674 138.83 79.7198 138.886C79.8756 138.939 80.0397 138.966 80.212 138.966C80.3413 138.966 80.4473 138.959 80.5302 138.946C80.613 138.929 80.6793 138.916 80.729 138.906L80.9677 139.96C80.8881 139.99 80.7771 140.02 80.6346 140.05C80.4921 140.083 80.3114 140.099 80.0927 140.099C79.7612 140.099 79.4364 140.028 79.1183 139.886C78.8034 139.743 78.5415 139.526 78.3327 139.234C78.1272 138.943 78.0245 138.575 78.0245 138.131V130.534ZM82.5934 140V132.364H83.7269V133.517H83.8065C83.9457 133.139 84.1976 132.833 84.5621 132.597C84.9267 132.362 85.3377 132.244 85.7951 132.244C85.8813 132.244 85.989 132.246 86.1183 132.249C86.2475 132.253 86.3453 132.258 86.4116 132.264V133.457C86.3718 133.447 86.2807 133.433 86.1381 133.413C85.9989 133.389 85.8514 133.378 85.6957 133.378C85.3245 133.378 84.993 133.456 84.7013 133.612C84.413 133.764 84.1843 133.976 84.0153 134.248C83.8496 134.516 83.7667 134.823 83.7667 135.168V140H82.5934ZM90.7717 140.159C90.0359 140.159 89.4012 139.997 88.8675 139.672C88.3372 139.344 87.9279 138.886 87.6396 138.3C87.3545 137.71 87.212 137.024 87.212 136.241C87.212 135.459 87.3545 134.77 87.6396 134.173C87.9279 133.573 88.329 133.106 88.8427 132.771C89.3597 132.433 89.9629 132.264 90.6523 132.264C91.0501 132.264 91.4428 132.33 91.8306 132.463C92.2184 132.596 92.5714 132.811 92.8896 133.109C93.2077 133.404 93.4613 133.795 93.6502 134.283C93.8391 134.77 93.9336 135.37 93.9336 136.082V136.58H88.0472V135.565H92.7404C92.7404 135.134 92.6542 134.75 92.4819 134.412C92.3129 134.074 92.0709 133.807 91.756 133.612C91.4445 133.416 91.0766 133.318 90.6523 133.318C90.185 133.318 89.7807 133.434 89.4393 133.666C89.1012 133.895 88.841 134.193 88.6587 134.561C88.4764 134.929 88.3853 135.323 88.3853 135.744V136.42C88.3853 136.997 88.4847 137.486 88.6836 137.887C88.8858 138.285 89.1658 138.588 89.5238 138.797C89.8817 139.002 90.2977 139.105 90.7717 139.105C91.0799 139.105 91.3583 139.062 91.6069 138.976C91.8588 138.886 92.0759 138.754 92.2582 138.578C92.4405 138.399 92.5813 138.177 92.6808 137.912L93.8143 138.23C93.695 138.615 93.4944 138.953 93.2127 139.244C92.931 139.533 92.583 139.758 92.1687 139.92C91.7544 140.08 91.2887 140.159 90.7717 140.159Z" fill="#0D032E"/>
<path d="M73.5 86L62.6747 80L84.3253 80L73.5 86Z" fill="#FEEBE5"/>
</g>
<path d="M33.0043 38V27.8182H36.902C37.6378 27.8182 38.2493 27.9342 38.7365 28.1662C39.227 28.3949 39.5933 28.7081 39.8352 29.1058C40.0805 29.5036 40.2031 29.9543 40.2031 30.4581C40.2031 30.8724 40.1236 31.227 39.9645 31.522C39.8054 31.8137 39.5916 32.0507 39.3232 32.233C39.0547 32.4152 38.7547 32.5462 38.4233 32.6257V32.7251C38.7846 32.745 39.1309 32.8561 39.4624 33.0582C39.7971 33.2571 40.0705 33.5388 40.2827 33.9034C40.4948 34.268 40.6009 34.7088 40.6009 35.2259C40.6009 35.7528 40.4732 36.2268 40.218 36.6477C39.9628 37.0653 39.5784 37.3951 39.0646 37.6371C38.5509 37.879 37.9046 38 37.1257 38H33.0043ZM34.8487 36.4588H36.8324C37.5019 36.4588 37.9841 36.3312 38.2791 36.076C38.5774 35.8175 38.7266 35.486 38.7266 35.0817C38.7266 34.7801 38.652 34.5083 38.5028 34.2663C38.3537 34.0211 38.1416 33.8288 37.8665 33.6896C37.5914 33.5471 37.2633 33.4759 36.8821 33.4759H34.8487V36.4588ZM34.8487 32.1484H36.6733C36.9915 32.1484 37.2782 32.0904 37.5334 31.9744C37.7886 31.8551 37.9891 31.6877 38.1349 31.4723C38.2841 31.2536 38.3587 30.995 38.3587 30.6967C38.3587 30.3023 38.2195 29.9775 37.9411 29.7223C37.666 29.4671 37.2566 29.3395 36.7131 29.3395H34.8487V32.1484ZM44.3233 38.1541C43.8394 38.1541 43.4036 38.0679 43.0158 37.8956C42.6313 37.7199 42.3264 37.4614 42.101 37.12C41.879 36.7786 41.7679 36.3577 41.7679 35.8572C41.7679 35.4264 41.8475 35.0701 42.0066 34.7884C42.1657 34.5066 42.3828 34.2812 42.6578 34.1122C42.9329 33.9432 43.2428 33.8156 43.5875 33.7294C43.9355 33.6399 44.2952 33.5753 44.6664 33.5355C45.1138 33.4891 45.4767 33.4477 45.7551 33.4112C46.0336 33.3714 46.2357 33.3118 46.3617 33.2322C46.4909 33.1494 46.5556 33.0218 46.5556 32.8494V32.8196C46.5556 32.4451 46.4445 32.1551 46.2225 31.9496C46.0004 31.7441 45.6806 31.6413 45.263 31.6413C44.8221 31.6413 44.4725 31.7375 44.214 31.9297C43.9587 32.1219 43.7864 32.349 43.6969 32.6108L42.0165 32.3722C42.1491 31.9081 42.3678 31.5204 42.6728 31.2088C42.9777 30.8939 43.3506 30.6586 43.7914 30.5028C44.2322 30.3438 44.7194 30.2642 45.253 30.2642C45.6209 30.2642 45.9872 30.3073 46.3517 30.3935C46.7163 30.4796 47.0494 30.6222 47.351 30.821C47.6526 31.0166 47.8946 31.2834 48.0769 31.6214C48.2625 31.9595 48.3553 32.3821 48.3553 32.8892V38H46.6252V36.951H46.5655C46.4561 37.1631 46.302 37.362 46.1032 37.5476C45.9076 37.7299 45.6607 37.8774 45.3624 37.9901C45.0674 38.0994 44.7211 38.1541 44.3233 38.1541ZM44.7907 36.8317C45.1519 36.8317 45.4651 36.7604 45.7303 36.6179C45.9954 36.4721 46.1993 36.2798 46.3418 36.0412C46.4876 35.8026 46.5605 35.5424 46.5605 35.2607V34.3608C46.5042 34.4072 46.4081 34.4503 46.2722 34.4901C46.1396 34.5298 45.9905 34.5646 45.8248 34.5945C45.659 34.6243 45.495 34.6508 45.3326 34.674C45.1702 34.6972 45.0293 34.7171 44.91 34.7337C44.6415 34.7701 44.4012 34.8298 44.1891 34.9126C43.977 34.9955 43.8096 35.1115 43.687 35.2607C43.5643 35.4065 43.503 35.5954 43.503 35.8274C43.503 36.1589 43.624 36.4091 43.8659 36.5781C44.1079 36.7472 44.4161 36.8317 44.7907 36.8317ZM51.9647 33.5256V38H50.165V30.3636H51.8851V31.6612H51.9746C52.1503 31.2337 52.4303 30.8939 52.8148 30.642C53.2026 30.3902 53.6815 30.2642 54.2516 30.2642C54.7786 30.2642 55.2376 30.3769 55.6287 30.6023C56.0231 30.8277 56.3281 31.1541 56.5435 31.5817C56.7623 32.0092 56.87 32.5279 56.8667 33.1378V38H55.0669V33.4162C55.0669 32.9058 54.9344 32.5064 54.6692 32.218C54.4074 31.9297 54.0444 31.7855 53.5804 31.7855C53.2656 31.7855 52.9855 31.8551 52.7402 31.9943C52.4983 32.1302 52.3077 32.3274 52.1685 32.5859C52.0326 32.8445 51.9647 33.1577 51.9647 33.5256ZM60.3368 35.6037L60.3319 33.4311H60.6202L63.3645 30.3636H65.4675L62.0918 34.1222H61.7189L60.3368 35.6037ZM58.6962 38V27.8182H60.4959V38H58.6962ZM63.4888 38L61.003 34.5249L62.2161 33.2571L65.6415 38H63.4888ZM68.8643 38.1541C68.3804 38.1541 67.9446 38.0679 67.5568 37.8956C67.1723 37.7199 66.8674 37.4614 66.642 37.12C66.42 36.7786 66.3089 36.3577 66.3089 35.8572C66.3089 35.4264 66.3885 35.0701 66.5476 34.7884C66.7067 34.5066 66.9238 34.2812 67.1989 34.1122C67.474 33.9432 67.7839 33.8156 68.1286 33.7294C68.4766 33.6399 68.8362 33.5753 69.2074 33.5355C69.6548 33.4891 70.0178 33.4477 70.2962 33.4112C70.5746 33.3714 70.7768 33.3118 70.9027 33.2322C71.032 33.1494 71.0966 33.0218 71.0966 32.8494V32.8196C71.0966 32.4451 70.9856 32.1551 70.7635 31.9496C70.5414 31.7441 70.2216 31.6413 69.804 31.6413C69.3632 31.6413 69.0135 31.7375 68.755 31.9297C68.4998 32.1219 68.3274 32.349 68.2379 32.6108L66.5575 32.3722C66.6901 31.9081 66.9089 31.5204 67.2138 31.2088C67.5187 30.8939 67.8916 30.6586 68.3324 30.5028C68.7732 30.3438 69.2604 30.2642 69.794 30.2642C70.1619 30.2642 70.5282 30.3073 70.8928 30.3935C71.2573 30.4796 71.5904 30.6222 71.892 30.821C72.1937 31.0166 72.4356 31.2834 72.6179 31.6214C72.8035 31.9595 72.8963 32.3821 72.8963 32.8892V38H71.1662V36.951H71.1065C70.9972 37.1631 70.843 37.362 70.6442 37.5476C70.4486 37.7299 70.2017 37.8774 69.9034 37.9901C69.6084 38.0994 69.2621 38.1541 68.8643 38.1541ZM69.3317 36.8317C69.6929 36.8317 70.0062 36.7604 70.2713 36.6179C70.5365 36.4721 70.7403 36.2798 70.8828 36.0412C71.0286 35.8026 71.1016 35.5424 71.1016 35.2607V34.3608C71.0452 34.4072 70.9491 34.4503 70.8132 34.4901C70.6806 34.5298 70.5315 34.5646 70.3658 34.5945C70.2 34.6243 70.036 34.6508 69.8736 34.674C69.7112 34.6972 69.5703 34.7171 69.451 34.7337C69.1825 34.7701 68.9422 34.8298 68.7301 34.9126C68.518 34.9955 68.3506 35.1115 68.228 35.2607C68.1054 35.4065 68.044 35.5954 68.044 35.8274C68.044 36.1589 68.165 36.4091 68.407 36.5781C68.6489 36.7472 68.9571 36.8317 69.3317 36.8317ZM81.2212 38.1491C80.5252 38.1491 79.927 38.0232 79.4265 37.7713C78.926 37.5194 78.5399 37.1797 78.2681 36.7521C77.9996 36.3213 77.8654 35.8357 77.8654 35.2955C77.8654 34.8878 77.9483 34.5265 78.114 34.2116C78.283 33.8968 78.515 33.6051 78.81 33.3366C79.1083 33.0682 79.453 32.8014 79.8441 32.5362L81.6488 31.3082C81.9139 31.1359 82.1145 30.9536 82.2504 30.7614C82.3896 30.5691 82.4592 30.3437 82.4592 30.0852C82.4592 29.8665 82.3664 29.6593 82.1808 29.4638C81.9985 29.2682 81.7466 29.1705 81.4251 29.1705C81.2096 29.1705 81.0191 29.2218 80.8533 29.3246C80.6909 29.424 80.5633 29.5549 80.4705 29.7173C80.381 29.8797 80.3363 30.0521 80.3363 30.2344C80.3363 30.4564 80.3976 30.6818 80.5202 30.9105C80.6462 31.1392 80.8086 31.3762 81.0075 31.6214C81.2096 31.8667 81.4251 32.1269 81.6538 32.402L86.4315 38H84.4826L80.5153 33.456C80.2203 33.1113 79.9353 32.7715 79.6602 32.4368C79.3884 32.102 79.1647 31.754 78.989 31.3928C78.8166 31.0282 78.7305 30.6338 78.7305 30.2095C78.7305 29.7289 78.8415 29.2997 79.0636 28.9219C79.2856 28.5407 79.5955 28.2408 79.9933 28.022C80.3943 27.8033 80.8633 27.6939 81.4002 27.6939C81.9371 27.6939 82.3978 27.8 82.7823 28.0121C83.1668 28.2242 83.4634 28.5059 83.6722 28.8572C83.881 29.2086 83.9854 29.5914 83.9854 30.0057C83.9854 30.4863 83.8661 30.9171 83.6275 31.2983C83.3888 31.6761 83.0574 32.0192 82.6332 32.3274L80.5749 33.8338C80.2369 34.0791 79.9949 34.3277 79.8491 34.5795C79.7032 34.8281 79.6303 35.0402 79.6303 35.2159C79.6303 35.4844 79.6983 35.728 79.8342 35.9467C79.9701 36.1655 80.1606 36.3411 80.4059 36.4737C80.6545 36.603 80.9445 36.6676 81.2759 36.6676C81.6405 36.6676 82.0001 36.5864 82.3548 36.424C82.7094 36.2583 83.0326 36.023 83.3242 35.718C83.6159 35.4131 83.8479 35.0485 84.0202 34.6243C84.1926 34.1967 84.2788 33.7228 84.2788 33.2024H85.8249C85.8249 33.8454 85.7537 34.4055 85.6112 34.8828C85.4686 35.3568 85.2847 35.7578 85.0593 36.0859C84.8339 36.4107 84.5953 36.6709 84.3434 36.8665C84.2638 36.9228 84.1876 36.9792 84.1147 37.0355C84.0418 37.0919 83.9656 37.1482 83.886 37.2045C83.5281 37.5294 83.1088 37.768 82.6282 37.9205C82.1509 38.0729 81.6819 38.1491 81.2212 38.1491ZM91.014 38V27.8182H92.8585V32.4964H92.9828L96.9551 27.8182H99.2072L95.2697 32.3871L99.242 38H97.0247L93.987 33.6349L92.8585 34.9673V38H91.014ZM102.607 38.1541C102.123 38.1541 101.687 38.0679 101.299 37.8956C100.915 37.7199 100.61 37.4614 100.384 37.12C100.162 36.7786 100.051 36.3577 100.051 35.8572C100.051 35.4264 100.131 35.0701 100.29 34.7884C100.449 34.5066 100.666 34.2812 100.941 34.1122C101.216 33.9432 101.526 33.8156 101.871 33.7294C102.219 33.6399 102.578 33.5753 102.95 33.5355C103.397 33.4891 103.76 33.4477 104.038 33.4112C104.317 33.3714 104.519 33.3118 104.645 33.2322C104.774 33.1494 104.839 33.0218 104.839 32.8494V32.8196C104.839 32.4451 104.728 32.1551 104.506 31.9496C104.284 31.7441 103.964 31.6413 103.546 31.6413C103.105 31.6413 102.756 31.7375 102.497 31.9297C102.242 32.1219 102.07 32.349 101.98 32.6108L100.3 32.3722C100.432 31.9081 100.651 31.5204 100.956 31.2088C101.261 30.8939 101.634 30.6586 102.075 30.5028C102.515 30.3438 103.003 30.2642 103.536 30.2642C103.904 30.2642 104.27 30.3073 104.635 30.3935C105 30.4796 105.333 30.6222 105.634 30.821C105.936 31.0166 106.178 31.2834 106.36 31.6214C106.546 31.9595 106.638 32.3821 106.638 32.8892V38H104.908V36.951H104.849C104.739 37.1631 104.585 37.362 104.386 37.5476C104.191 37.7299 103.944 37.8774 103.646 37.9901C103.351 38.0994 103.004 38.1541 102.607 38.1541ZM103.074 36.8317C103.435 36.8317 103.748 36.7604 104.013 36.6179C104.279 36.4721 104.482 36.2798 104.625 36.0412C104.771 35.8026 104.844 35.5424 104.844 35.2607V34.3608C104.787 34.4072 104.691 34.4503 104.555 34.4901C104.423 34.5298 104.274 34.5646 104.108 34.5945C103.942 34.6243 103.778 34.6508 103.616 34.674C103.453 34.6972 103.313 34.7171 103.193 34.7337C102.925 34.7701 102.684 34.8298 102.472 34.9126C102.26 34.9955 102.093 35.1115 101.97 35.2607C101.848 35.4065 101.786 35.5954 101.786 35.8274C101.786 36.1589 101.907 36.4091 102.149 36.5781C102.391 36.7472 102.699 36.8317 103.074 36.8317ZM108.448 38V30.3636H110.193V31.6364H110.273C110.412 31.1955 110.651 30.8558 110.989 30.6172C111.33 30.3752 111.719 30.2543 112.157 30.2543C112.256 30.2543 112.367 30.2592 112.49 30.2692C112.616 30.2758 112.72 30.2874 112.803 30.304V31.9595C112.727 31.933 112.606 31.9098 112.44 31.8899C112.278 31.8667 112.121 31.8551 111.968 31.8551C111.64 31.8551 111.345 31.9264 111.083 32.0689C110.825 32.2081 110.621 32.402 110.472 32.6506C110.322 32.8991 110.248 33.1858 110.248 33.5107V38H108.448ZM118.222 30.3636V31.7557H113.832V30.3636H118.222ZM114.916 28.5341H116.716V35.7031C116.716 35.9451 116.752 36.1307 116.825 36.2599C116.902 36.3859 117.001 36.4721 117.124 36.5185C117.246 36.5649 117.382 36.5881 117.531 36.5881C117.644 36.5881 117.747 36.5798 117.839 36.5632C117.936 36.5466 118.009 36.5317 118.058 36.5185L118.362 37.9254C118.265 37.9586 118.128 37.995 117.949 38.0348C117.773 38.0746 117.558 38.0978 117.303 38.1044C116.852 38.1177 116.446 38.0497 116.085 37.9006C115.723 37.7481 115.437 37.5128 115.224 37.1946C115.016 36.8764 114.913 36.4787 114.916 36.0014V28.5341ZM33.0043 58V47.8182H39.6264V49.3643H34.8487V52.1286H39.2834V53.6747H34.8487V56.4538H39.6662V58H33.0043ZM43.0692 55.6037L43.0643 53.4311H43.3526L46.0969 50.3636H48.1999L44.8242 54.1222H44.4513L43.0692 55.6037ZM41.4286 58V47.8182H43.2283V58H41.4286ZM46.2212 58L43.7354 54.5249L44.9485 53.2571L48.3739 58H46.2212ZM55.4348 52.3821L53.7942 52.5611C53.7478 52.3954 53.6666 52.2396 53.5506 52.0938C53.4379 51.9479 53.2855 51.8303 53.0932 51.7408C52.901 51.6513 52.6657 51.6065 52.3873 51.6065C52.0127 51.6065 51.6979 51.6877 51.4426 51.8501C51.1908 52.0125 51.0665 52.223 51.0698 52.4815C51.0665 52.7036 51.1477 52.8842 51.3134 53.0234C51.4824 53.1626 51.7608 53.277 52.1486 53.3665L53.4512 53.6449C54.1737 53.8007 54.7106 54.0476 55.062 54.3857C55.4166 54.7237 55.5956 55.1662 55.5989 55.7131C55.5956 56.1937 55.4547 56.6179 55.1763 56.9858C54.9012 57.3504 54.5184 57.6354 54.0279 57.8409C53.5373 58.0464 52.9739 58.1491 52.3375 58.1491C51.4029 58.1491 50.6505 57.9536 50.0804 57.5625C49.5104 57.1681 49.1706 56.6196 49.0613 55.9169L50.8162 55.7479C50.8958 56.0926 51.0648 56.3527 51.3233 56.5284C51.5819 56.7041 51.9183 56.7919 52.3326 56.7919C52.7601 56.7919 53.1032 56.7041 53.3617 56.5284C53.6235 56.3527 53.7544 56.1357 53.7544 55.8771C53.7544 55.6584 53.6699 55.4777 53.5009 55.3352C53.3352 55.1927 53.0766 55.0833 52.7253 55.0071L51.4228 54.7337C50.6903 54.5812 50.1484 54.3243 49.7971 53.9631C49.4457 53.5985 49.2717 53.1378 49.275 52.581C49.2717 52.1103 49.3993 51.7027 49.6578 51.358C49.9197 51.0099 50.2826 50.7415 50.7466 50.5526C51.214 50.3603 51.7525 50.2642 52.3624 50.2642C53.2573 50.2642 53.9616 50.4548 54.4753 50.8359C54.9924 51.2171 55.3122 51.7325 55.4348 52.3821ZM60.8961 50.3636V51.7557H56.5062V50.3636H60.8961ZM57.59 48.5341H59.3897V55.7031C59.3897 55.9451 59.4262 56.1307 59.4991 56.2599C59.5753 56.3859 59.6748 56.4721 59.7974 56.5185C59.92 56.5649 60.0559 56.5881 60.2051 56.5881C60.3178 56.5881 60.4205 56.5798 60.5133 56.5632C60.6094 56.5466 60.6824 56.5317 60.7321 56.5185L61.0353 57.9254C60.9392 57.9586 60.8017 57.995 60.6227 58.0348C60.447 58.0746 60.2316 58.0978 59.9764 58.1044C59.5256 58.1177 59.1196 58.0497 58.7583 57.9006C58.3971 57.7481 58.1104 57.5128 57.8983 57.1946C57.6895 56.8764 57.5867 56.4787 57.59 56.0014V48.5341ZM62.4013 58V50.3636H64.1463V51.6364H64.2259C64.3651 51.1955 64.6037 50.8558 64.9418 50.6172C65.2831 50.3752 65.6726 50.2543 66.1101 50.2543C66.2095 50.2543 66.3205 50.2592 66.4432 50.2692C66.5691 50.2758 66.6735 50.2874 66.7564 50.304V51.9595C66.6802 51.933 66.5592 51.9098 66.3935 51.8899C66.2311 51.8667 66.0736 51.8551 65.9212 51.8551C65.593 51.8551 65.2981 51.9264 65.0362 52.0689C64.7777 52.2081 64.5739 52.402 64.4247 52.6506C64.2756 52.8991 64.201 53.1858 64.201 53.5107V58H62.4013ZM71.0183 58.1491C70.2527 58.1491 69.5914 57.9901 69.0346 57.6719C68.4811 57.3504 68.0552 56.8963 67.7569 56.3097C67.4586 55.7197 67.3095 55.0253 67.3095 54.2266C67.3095 53.4411 67.4586 52.7517 67.7569 52.1584C68.0585 51.5618 68.4795 51.0978 69.0197 50.7663C69.56 50.4316 70.1947 50.2642 70.9238 50.2642C71.3945 50.2642 71.8386 50.3404 72.2562 50.4929C72.6771 50.642 73.0484 50.8741 73.3699 51.1889C73.6947 51.5038 73.9499 51.9048 74.1355 52.392C74.3211 52.8759 74.4139 53.4527 74.4139 54.1222V54.674H68.1547V53.4609H72.6887C72.6854 53.1162 72.6109 52.8097 72.465 52.5412C72.3192 52.2694 72.1154 52.0556 71.8535 51.8999C71.595 51.7441 71.2934 51.6662 70.9487 51.6662C70.5808 51.6662 70.2576 51.7557 69.9792 51.9347C69.7008 52.1103 69.4837 52.3423 69.3279 52.6307C69.1755 52.9157 69.0976 53.2289 69.0943 53.5703V54.6293C69.0943 55.0734 69.1755 55.4545 69.3379 55.7727C69.5003 56.0876 69.7273 56.3295 70.019 56.4986C70.3107 56.6643 70.652 56.7472 71.0431 56.7472C71.305 56.7472 71.542 56.7107 71.7541 56.6378C71.9662 56.5616 72.1502 56.4505 72.3059 56.3047C72.4617 56.1589 72.5794 55.9782 72.6589 55.7628L74.3393 55.9517C74.2333 56.3958 74.0311 56.7836 73.7328 57.1151C73.4378 57.4432 73.06 57.6984 72.5993 57.8807C72.1386 58.0597 71.6116 58.1491 71.0183 58.1491ZM77.7362 47.8182V58H75.9364V47.8182H77.7362ZM82.9675 58.1491C82.2019 58.1491 81.5407 57.9901 80.9838 57.6719C80.4303 57.3504 80.0044 56.8963 79.7061 56.3097C79.4078 55.7197 79.2587 55.0253 79.2587 54.2266C79.2587 53.4411 79.4078 52.7517 79.7061 52.1584C80.0078 51.5618 80.4287 51.0978 80.9689 50.7663C81.5092 50.4316 82.1439 50.2642 82.873 50.2642C83.3437 50.2642 83.7878 50.3404 84.2054 50.4929C84.6264 50.642 84.9976 50.8741 85.3191 51.1889C85.6439 51.5038 85.8991 51.9048 86.0847 52.392C86.2703 52.8759 86.3631 53.4527 86.3631 54.1222V54.674H80.1039V53.4609H84.638C84.6346 53.1162 84.5601 52.8097 84.4142 52.5412C84.2684 52.2694 84.0646 52.0556 83.8027 51.8999C83.5442 51.7441 83.2426 51.6662 82.8979 51.6662C82.53 51.6662 82.2069 51.7557 81.9284 51.9347C81.65 52.1103 81.4329 52.3423 81.2772 52.6307C81.1247 52.9157 81.0468 53.2289 81.0435 53.5703V54.6293C81.0435 55.0734 81.1247 55.4545 81.2871 55.7727C81.4495 56.0876 81.6766 56.3295 81.9682 56.4986C82.2599 56.6643 82.6013 56.7472 82.9924 56.7472C83.2542 56.7472 83.4912 56.7107 83.7033 56.6378C83.9154 56.5616 84.0994 56.4505 84.2551 56.3047C84.4109 56.1589 84.5286 55.9782 84.6081 55.7628L86.2885 55.9517C86.1825 56.3958 85.9803 56.7836 85.682 57.1151C85.387 57.4432 85.0092 57.6984 84.5485 57.8807C84.0878 58.0597 83.5608 58.1491 82.9675 58.1491ZM87.8857 58V50.3636H89.6307V51.6364H89.7102C89.8494 51.1955 90.0881 50.8558 90.4261 50.6172C90.7675 50.3752 91.157 50.2543 91.5945 50.2543C91.6939 50.2543 91.8049 50.2592 91.9276 50.2692C92.0535 50.2758 92.1579 50.2874 92.2408 50.304V51.9595C92.1645 51.933 92.0436 51.9098 91.8778 51.8899C91.7154 51.8667 91.558 51.8551 91.4055 51.8551C91.0774 51.8551 90.7824 51.9264 90.5206 52.0689C90.2621 52.2081 90.0582 52.402 89.9091 52.6506C89.7599 52.8991 89.6854 53.1858 89.6854 53.5107V58H87.8857ZM93.4364 58V50.3636H95.2362V58H93.4364ZM94.3413 49.2798C94.0562 49.2798 93.811 49.1854 93.6055 48.9964C93.4 48.8042 93.2972 48.5739 93.2972 48.3054C93.2972 48.0336 93.4 47.8033 93.6055 47.6143C93.811 47.4221 94.0562 47.326 94.3413 47.326C94.6296 47.326 94.8749 47.4221 95.0771 47.6143C95.2826 47.8033 95.3853 48.0336 95.3853 48.3054C95.3853 48.5739 95.2826 48.8042 95.0771 48.9964C94.8749 49.1854 94.6296 49.2798 94.3413 49.2798Z" fill="#E84626"/>
<path d="M12 33C12 29.134 15.134 26 19 26C22.866 26 26 29.134 26 33C26 36.866 22.866 40 19 40C15.134 40 12 36.866 12 33Z" fill="#FF704D"/>
<path d="M17.2118 29.5983C16.7112 29.3173 16.0833 29.6727 16.0833 30.2348V35.7652C16.0833 36.3273 16.7112 36.6827 17.2118 36.4017L22.1245 33.6407C22.6252 33.3596 22.6252 32.6487 22.1245 32.3676L17.2118 29.5983Z" fill="white"/>
<defs>
<clipPath id="clip0_0_333">
<path d="M0 84C0 81.7909 1.79086 80 4 80H143C145.209 80 147 81.7909 147 84V170H0V84Z" fill="white"/>
</clipPath>
</defs>
</svg>