<svg width="52" height="40" viewBox="0 0 52 40" fill="none" xmlns="http://www.w3.org/2000/svg">
    <path
    d="M18.1924 27.2426C15.6507 32.5146 13.6045 35.4338 10.4539 37.7499C8.19542 39.3308 5.29262 39.8896 3.18986 39.4926C0.747259 39.0367 -0.328901 37.1691 0.860539 36.1396C4.66958 32.8529 6.62366 29.4632 7.04846 28.7867C11.346 21.9191 12.5071 16.5146 12.5071 16.5146C12.5071 16.5146 21.2509 20.5882 18.1924 27.2426Z"
    fill="#FF8059" />
    <path
    d="M25.8175 4.2132C26.2777 4.2132 26.5963 4.68378 26.4477 5.13231C24.9184 9.77937 23.1838 17.1029 23.1342 17.2941C22.7236 19.2058 12.8682 14.772 13.47 12.625C13.5337 12.397 14.2913 9.84555 14.7019 8.42643C15.417 5.92643 17.626 4.2132 20.1394 4.2132H25.8246H25.8175Z"
    fill="#5E48C1" />
    <path
    d="M28.3592 36.7205H20.1677C14.1992 36.7205 10.8504 30.4852 11.615 21.9779C12.0328 18.1544 12.8753 14.7794 13.4771 12.6249C14.27 10.7352 17.4914 9.88965 19.5517 11.3161C21.4987 12.6617 22.8227 15.3529 23.1413 17.2941C22.7306 19.2058 22.5324 20.4044 22.3554 21.9705C21.612 27.8749 22.0793 33.0367 25.0387 35.4117L28.3663 36.7132L28.3592 36.7205Z"
    fill="#3B257D" />
    <path
    d="M51.1781 0.882324C51.6029 0.882324 51.9215 1.29409 51.8294 1.72056C51.2843 4.24262 50.3143 8.22791 49.5213 11.5294C47.4257 20.0294 44.537 31.2647 38.0588 35.1985C35.3755 37.0588 30.993 37.3823 29.8885 37.3823H21.9377C16.7055 37.3823 14.4329 34.1617 14.1709 33.7647C17.8383 38.397 24.1537 36.1103 25.7821 34.9926C33.3648 30.0588 36.572 15.9191 38.8376 5.47791C39.4253 2.78674 41.7263 0.882324 44.3742 0.882324H51.1781Z"
    fill="#FF8059" />
</svg>