<svg width="24" height="24" viewBox="0 0 24 24" fill="none" xmlns="http://www.w3.org/2000/svg">
<path fill-rule="evenodd" clip-rule="evenodd" d="M20.2253 13.1947C21.0444 8.23664 16.7126 3.95413 11.5011 4.76388C8.32499 5.25478 5.78694 7.76751 5.30334 10.8252L5.3031 10.8267C5.01606 12.6238 5.41293 14.2992 6.25142 15.6878L6.4957 16.0924L5.36119 19.3019C5.40109 19.3023 5.44164 19.3027 5.48279 19.3032C6.39099 19.3125 7.59661 19.3235 8.78761 19.3301C9.97994 19.3367 11.1526 19.3389 11.9969 19.3307C12.0775 19.3299 12.1546 19.329 12.2281 19.3281L13.2124 19.2701C13.4847 19.2541 13.723 19.2302 13.9098 19.2067C17.1232 18.751 19.718 16.2587 20.2239 13.1946L20.2253 13.1947ZM22.1956 13.5302L22.197 13.5303C23.2596 7.13819 17.6669 1.78209 11.1944 2.78754C7.1848 3.40744 3.95166 6.57116 3.32801 10.512C2.99048 12.6262 3.39828 14.619 4.30035 16.302L2.5448 21.2683L3.94004 21.2859L3.95267 20.286C3.94004 21.2859 3.93996 21.2859 3.94004 21.2859L4.36005 21.291C4.62674 21.2941 5.00715 21.2984 5.46219 21.3031C6.3721 21.3124 7.58117 21.3235 8.77652 21.3301C9.97053 21.3367 11.1559 21.3389 12.0163 21.3306C12.4436 21.3265 12.8034 21.3196 13.0462 21.3086C13.156 21.3037 13.284 21.2963 13.3865 21.2812C13.4143 21.2772 13.4615 21.2696 13.5158 21.2558C13.5162 21.2557 13.5168 21.2555 13.5177 21.2553C13.5191 21.255 13.5212 21.2545 13.5238 21.2538C13.7678 21.2359 13.9857 21.2131 14.1682 21.1899L14.1819 21.1881C18.2209 20.6191 21.5366 17.4936 22.1956 13.5302Z" fill="#3A2387"/>
<path d="M9.18816 13.3839C9.88472 13.3839 10.4494 12.8353 10.4494 12.1586C10.4494 11.4819 9.88472 10.9333 9.18816 10.9333C8.49161 10.9333 7.92694 11.4819 7.92694 12.1586C7.92694 12.8353 8.49161 13.3839 9.18816 13.3839Z" fill="#FF704D"/>
<path d="M12.6361 13.3839C13.3327 13.3839 13.8973 12.8353 13.8973 12.1586C13.8973 11.4819 13.3327 10.9333 12.6361 10.9333C11.9395 10.9333 11.3749 11.4819 11.3749 12.1586C11.3749 12.8353 11.9395 13.3839 12.6361 13.3839Z" fill="#FF704D"/>
<path d="M16.084 13.3839C16.7806 13.3839 17.3453 12.8353 17.3453 12.1586C17.3453 11.4819 16.7806 10.9333 16.084 10.9333C15.3875 10.9333 14.8228 11.4819 14.8228 12.1586C14.8228 12.8353 15.3875 13.3839 16.084 13.3839Z" fill="#FF704D"/>
</svg>
