<svg width="32" height="32" viewBox="0 0 32 32" fill="none" xmlns="http://www.w3.org/2000/svg">
<path fill-rule="evenodd" clip-rule="evenodd" d="M6.49643 18.449C6.20567 18.449 5.875 18.7178 5.875 19.1704V25.0092C5.875 25.4618 6.20567 25.7306 6.49643 25.7306H12.8294C13.1201 25.7306 13.4508 25.4618 13.4508 25.0092V19.1704C13.4508 18.7178 13.1201 18.449 12.8294 18.449H6.49643ZM4.125 19.1704C4.125 17.8596 5.13428 16.699 6.49643 16.699H12.8294C14.1915 16.699 15.2008 17.8596 15.2008 19.1704V25.0092C15.2008 26.32 14.1915 27.4806 12.8294 27.4806H6.49643C5.13428 27.4806 4.125 26.32 4.125 25.0092V19.1704Z" fill="white"/>
<path fill-rule="evenodd" clip-rule="evenodd" d="M6.49643 6.42737C6.20567 6.42737 5.875 6.69619 5.875 7.14878V12.9876C5.875 13.4402 6.20567 13.709 6.49643 13.709H12.8294C13.1201 13.709 13.4508 13.4402 13.4508 12.9876V7.14878C13.4508 6.69618 13.1201 6.42737 12.8294 6.42737H6.49643ZM4.125 7.14878C4.125 5.83803 5.13428 4.67737 6.49643 4.67737H12.8294C14.1915 4.67737 15.2008 5.83803 15.2008 7.14878V12.9876C15.2008 14.2984 14.1915 15.459 12.8294 15.459H6.49643C5.13428 15.459 4.125 14.2984 4.125 12.9876V7.14878Z" fill="white"/>
<path d="M24.9248 15.2808H18.4844C17.3435 15.2808 16.4092 14.2577 16.4092 12.9964V7.14875C16.4092 5.8875 17.3435 4.86438 18.4844 4.86438H24.9248C26.0658 4.86438 27 5.8875 27 7.14875V12.9964C27 14.2577 26.0658 15.2808 24.9248 15.2808Z" fill="#FF704D"/>
<path fill-rule="evenodd" clip-rule="evenodd" d="M18.534 18.449C18.2432 18.449 17.9125 18.7178 17.9125 19.1704V25.0092C17.9125 25.4618 18.2432 25.7306 18.534 25.7306H24.8669C25.1577 25.7306 25.4884 25.4618 25.4884 25.0092V19.1704C25.4884 18.7178 25.1577 18.449 24.8669 18.449H18.534ZM16.1625 19.1704C16.1625 17.8596 17.1718 16.699 18.534 16.699H24.8669C26.2291 16.699 27.2384 17.8596 27.2384 19.1704V25.0092C27.2384 26.32 26.2291 27.4806 24.8669 27.4806H18.534C17.1718 27.4806 16.1625 26.32 16.1625 25.0092V19.1704Z" fill="white"/>
</svg>