<svg width="32" height="32" viewBox="0 0 32 32" fill="none" xmlns="http://www.w3.org/2000/svg">
<path d="M8 14H9.6C10.1523 14 10.6 14.4477 10.6 15V22C10.6 22.5523 10.1523 23 9.6 23H8V14Z" fill="#5E48C1"/>
<path fill-rule="evenodd" clip-rule="evenodd" d="M13.6132 7.46526H10.3773V5.71526H13.6132V7.46526Z" fill="white"/>
<path d="M24.6329 4H12.7533C11.4412 4 10.3773 5.01503 10.3773 6.26689V10.312H21.663C22.6293 10.312 23.4095 11.0563 23.4095 11.9783V25.6708H24.6241C25.9362 25.6708 27 24.6558 27 23.4039V6.26689C27 5.01503 25.9362 4 24.6241 4H24.6329Z" fill="#FF704D"/>
<path fill-rule="evenodd" clip-rule="evenodd" d="M9.26914 7.46526C8.63161 7.46526 8.18488 7.94919 8.18488 8.4596C8.18488 8.97 8.63161 9.45393 9.26914 9.45393H21.6896C23.2152 9.45393 24.5239 10.6448 24.5239 12.1983V26.0534C24.5239 27.6069 23.2152 28.7977 21.6896 28.7977H9.26914C7.74351 28.7977 6.43488 27.6069 6.43488 26.0534V8.4596C6.43488 6.90611 7.74351 5.71526 9.26914 5.71526H10.3773V7.46526H9.26914ZM8.18488 10.9945V26.0534C8.18488 26.5638 8.63161 27.0477 9.26914 27.0477H21.6896C22.3271 27.0477 22.7739 26.5638 22.7739 26.0534V12.1983C22.7739 11.6879 22.3271 11.2039 21.6896 11.2039H9.26914C8.88857 11.2039 8.5215 11.1298 8.18488 10.9945Z" fill="white"/>
</svg>