<svg width="32" height="32" viewBox="0 0 32 32" fill="none" xmlns="http://www.w3.org/2000/svg">
<path d="M17.9955 26.3131C17.9955 26.8799 17.7722 27.3781 17.4029 27.7474C17.0336 28.1167 16.5268 28.34 15.96 28.34C15.3931 28.34 14.8864 28.1167 14.5171 27.7474C14.1478 27.3781 13.9245 26.8799 13.9245 26.3131H17.9955Z" fill="#5E48C1"/>
<path fill-rule="evenodd" clip-rule="evenodd" d="M10.6448 15.8034C11.8943 15.3667 13.1964 15.3207 13.9589 15.3207H14.1511L14.4449 15.4563L14.4525 15.46C15.0799 15.7644 15.8019 15.7627 16.4167 15.4615L16.4258 15.457L16.7211 15.3207H16.9133C17.6702 15.3207 18.9725 15.3644 20.2232 15.7999C21.493 16.242 22.7955 17.1237 23.345 18.8274C23.4728 19.2156 23.5441 19.7254 23.586 20.2476C23.6294 20.788 23.6458 21.4046 23.6414 22.0356C23.6326 23.2942 23.5406 24.6595 23.3964 25.6644L23.3917 25.6974L23.3844 25.7299C23.2769 26.2139 22.8586 26.5314 22.3928 26.5353L8.48795 26.5353C8.01712 26.5353 7.54787 26.2023 7.47493 25.6581C7.33565 24.6591 7.24601 23.2986 7.23722 22.0421C7.23281 21.4115 7.24865 20.795 7.29085 20.2544C7.3318 19.7298 7.40144 19.2194 7.52597 18.8313L7.52643 18.8299C8.07536 17.1292 9.37575 16.247 10.6448 15.8034ZM21.7417 24.7853C21.8289 23.9604 21.8849 22.9651 21.8915 22.0234C21.8956 21.4262 21.8798 20.863 21.8417 20.3878C21.8021 19.896 21.7427 19.556 21.6824 19.3735L21.6801 19.3667C21.353 18.3499 20.5908 17.7809 19.6477 17.4525C18.7677 17.1461 17.8071 17.0809 17.1049 17.0719C16.0469 17.5608 14.8297 17.5589 13.7679 17.0719C13.0633 17.0811 12.1019 17.148 11.2222 17.4554C10.28 17.7848 9.51929 18.3538 9.19205 19.3667C9.13201 19.5542 9.07399 19.8981 9.03554 20.3906C8.9983 20.8677 8.983 21.4322 8.98718 22.0298C8.99376 22.9703 9.04829 23.963 9.1327 24.7853H21.7417Z" fill="#3A2387"/>
<path fill-rule="evenodd" clip-rule="evenodd" d="M9.31354 9.48809C9.31354 5.92442 12.0304 3.125 15.4362 3.125C18.8514 3.125 21.5588 5.92537 21.5588 9.48809C21.5588 12.9579 18.9277 16.3064 15.4362 16.3064C11.9351 16.3064 9.31354 12.957 9.31354 9.48809ZM15.4362 4.875C13.0532 4.875 11.0635 6.83364 11.0635 9.48809C11.0635 12.2374 13.1313 14.5564 15.4362 14.5564C17.7333 14.5564 19.8088 12.2364 19.8088 9.48809C19.8088 6.83269 17.8268 4.875 15.4362 4.875Z" fill="#3A2387"/>
<path d="M28.1901 19.6398V26.9744C28.0184 27.7732 27.3227 28.34 26.5068 28.34H15.96C16.7759 28.34 17.6434 27.5842 17.6434 26.3904V19.6398C17.6434 18.9098 18.236 18.3172 18.966 18.3172H26.8675C27.5975 18.3172 28.1901 18.9098 28.1901 19.6398Z" fill="#FF704D"/>
</svg>