<svg width="32" height="32" viewBox="0 0 32 32" fill="none" xmlns="http://www.w3.org/2000/svg">
<path fill-rule="evenodd" clip-rule="evenodd" d="M10.9623 5.20456C11.5016 4.89649 12.1122 4.72856 12.739 4.72856C13.8642 4.72856 14.9386 5.2713 15.607 6.173C15.6073 6.17331 15.6075 6.17362 15.6077 6.17392L16 6.70053L16.3916 6.17484C17.0638 5.2583 18.1417 4.72856 19.261 4.72856C19.8878 4.72856 20.4984 4.89649 21.0377 5.20456L22.817 6.22009C22.8169 6.22006 22.817 6.22013 22.817 6.22009C24.3974 7.1217 25.0434 9.07004 24.3096 10.7393C24.3094 10.7396 24.3093 10.74 24.3091 10.7404L24.0639 11.3008L24.6954 11.3733C24.6961 11.3734 24.6967 11.3734 24.6973 11.3735C26.5052 11.5741 27.875 13.0958 27.875 14.9122V16.9435C27.875 18.7599 26.5052 20.2816 24.6975 20.4822C24.6968 20.4823 24.6961 20.4824 24.6954 20.4824L24.0653 20.5547L24.3091 21.1069C25.0434 22.7759 24.4067 24.7157 22.8187 25.6263L22.8172 25.6271L21.0381 26.6426C21.038 26.6426 21.0382 26.6425 21.0381 26.6426C20.4988 26.9506 19.8878 27.1188 19.261 27.1188C18.1359 27.1188 17.0616 26.5762 16.3932 25.6746C16.3929 25.6742 16.3926 25.6738 16.3923 25.6734L16 25.1468L15.6084 25.6725C14.9362 26.589 13.8583 27.1188 12.739 27.1188C12.1122 27.1188 11.5016 26.9508 10.9623 26.6428M10.9623 26.6428L9.18301 25.6272C9.18295 25.6272 9.18308 25.6273 9.18301 25.6272C7.60263 24.7256 6.95659 22.7773 7.69042 21.108C7.69058 21.1077 7.69073 21.1073 7.69089 21.1069L7.93608 20.5465L7.30457 20.474C7.30387 20.474 7.30317 20.4739 7.30247 20.4738C5.49475 20.2731 4.125 18.7515 4.125 16.9351V14.9038C4.125 13.0874 5.4948 11.5658 7.30257 11.3651L7.93465 11.2926L7.69089 10.7404C6.95653 9.07141 7.59332 7.13166 9.1813 6.22108L9.18282 6.2202L10.9623 5.20456M12.739 6.47856C12.426 6.47856 12.1134 6.56236 11.8302 6.72421L10.0518 7.73919C10.0516 7.73934 10.0521 7.73905 10.0518 7.73919C9.23993 8.20526 8.91932 9.1863 9.29245 10.035C9.29236 10.0349 9.29253 10.0352 9.29245 10.035L9.70726 10.9747L9.71078 10.9832C9.80447 11.208 9.8548 11.4714 9.80988 11.7633L9.80842 11.7728L9.80674 11.7823C9.7442 12.1367 9.55734 12.4418 9.30041 12.6592L9.29122 12.6669L9.28182 12.6745C9.05087 12.8592 8.78565 12.9494 8.54838 12.9833L8.53641 12.985L7.49665 13.1043C6.56905 13.2068 5.875 13.9845 5.875 14.9038V16.9351C5.875 17.8544 6.56905 18.6322 7.49665 18.7346L7.50037 18.735L8.51245 18.8512C8.82359 18.88 9.07771 19.0149 9.24986 19.1401L9.26302 19.1497L9.27581 19.1597C9.55196 19.3767 9.76004 19.6977 9.81151 20.086C9.85403 20.3689 9.80189 20.6371 9.71078 20.8558L9.70781 20.8629L9.29342 21.8101L9.29269 21.8117C8.91932 22.6603 9.24714 23.6491 10.0501 24.1072L11.8298 25.1229C12.113 25.2848 12.426 25.3688 12.739 25.3688C13.314 25.3688 13.8633 25.094 14.1985 24.6359L14.2029 24.6299L14.8247 23.7952L14.8341 23.7834C14.9544 23.633 15.1702 23.4118 15.5088 23.3042C15.6275 23.2651 15.7927 23.22 16.0042 23.22C16.2193 23.22 16.3923 23.2661 16.5297 23.3177L16.5444 23.3232L16.559 23.3293C16.7845 23.4232 16.9999 23.5759 17.1659 23.7834L17.1753 23.7952L17.7985 24.6318C18.1374 25.0893 18.691 25.3688 19.261 25.3688C19.574 25.3688 19.8866 25.285 20.1698 25.1231L21.9482 24.1081C21.9485 24.1079 21.9489 24.1077 21.9493 24.1075C22.7609 23.6414 23.0806 22.6609 22.7075 21.8123C22.7075 21.8121 22.7076 21.8125 22.7075 21.8123L22.2927 20.8726L22.2892 20.8642C22.1955 20.6393 22.1452 20.376 22.1901 20.084L22.1916 20.0745L22.1933 20.065C22.2558 19.7106 22.4427 19.4056 22.6996 19.1882L22.7088 19.1804L22.7182 19.1729C22.9491 18.9881 23.2143 18.8979 23.4516 18.864L23.4636 18.8623L24.4996 18.7434L24.5033 18.743C25.4309 18.6406 26.125 17.8628 26.125 16.9435V14.9122C26.125 13.9929 25.4309 13.2152 24.5033 13.1127L24.4996 13.1123L23.4876 12.9962C23.1764 12.9673 22.9223 12.8324 22.7501 12.7072L22.737 12.6977L22.7242 12.6876C22.448 12.4706 22.2399 12.1496 22.1885 11.7613C22.146 11.4784 22.1981 11.2102 22.2892 10.9916L22.2922 10.9844L22.7066 10.0373L22.7073 10.0356C23.0807 9.18702 22.7529 8.1982 21.9499 7.74018L20.1702 6.72443C19.887 6.56258 19.574 6.47856 19.261 6.47856C18.686 6.47856 18.1367 6.75338 17.8015 7.21144L17.7971 7.21747L17.1753 8.05215L17.1659 8.06394C17.0456 8.21432 16.8298 8.4355 16.4912 8.5431C16.3726 8.58227 16.2073 8.62736 15.9958 8.62736C15.7807 8.62736 15.6077 8.58121 15.4703 8.52968L15.4556 8.52415L15.441 8.51808C15.2155 8.42411 15.0001 8.27149 14.8341 8.06394L14.8247 8.05215L14.2029 7.21746L14.2015 7.21557C13.8626 6.75804 13.309 6.47856 12.739 6.47856Z" fill="white"/>
<path d="M15.9958 18.7818C17.5719 18.7818 18.8497 17.5041 18.8497 15.928C18.8497 14.3518 17.5719 13.0741 15.9958 13.0741C14.4196 13.0741 13.1419 14.3518 13.1419 15.928C13.1419 17.5041 14.4196 18.7818 15.9958 18.7818Z" fill="#FF704D"/>
</svg>